<?xml version="1.0" encoding="UTF-8"?>
<!DOCTYPE svg PUBLIC "-//W3C//DTD SVG 1.1//EN" "http://www.w3.org/Graphics/SVG/1.1/DTD/svg11.dtd">
<!-- Creator: CorelDRAW 2018 (64-Bit) -->
<svg xmlns="http://www.w3.org/2000/svg" xml:space="preserve" width="99px" height="99px" version="1.1" style="shape-rendering:geometricPrecision; text-rendering:geometricPrecision; image-rendering:optimizeQuality; fill-rule:evenodd; clip-rule:evenodd"
viewBox="0 0 23.58 23.58"
 xmlns:xlink="http://www.w3.org/1999/xlink">
 <defs>
  <style type="text/css">
   <![CDATA[
    .fil0 {fill:url(#id0)}
   ]]>
  </style>
  <radialGradient id="id0" gradientUnits="userSpaceOnUse" gradientTransform="matrix(1 -0 -0 1 0 0)" cx="11.79" cy="11.79" r="19.69" fx="11.79" fy="11.79">
   <stop offset="0" style="stop-opacity:1; stop-color:#949494"/>
   <stop offset="1" style="stop-opacity:1; stop-color:black"/>
  </radialGradient>
 </defs>
 <g id="Слой_x0020_1">
  <metadata id="CorelCorpID_0Corel-Layer"/>
  <path class="fil0" d="M0 0l23.58 0 0 23.58 -23.58 0 0 -23.58zm2.32 5.22l0.84 -0.05c0.01,0.28 0.06,0.46 0.14,0.56 0.13,0.15 0.37,0.23 0.72,0.23 0.28,0 0.49,-0.05 0.62,-0.16 0.13,-0.11 0.2,-0.24 0.2,-0.39 0,-0.13 -0.06,-0.24 -0.16,-0.33 -0.07,-0.06 -0.28,-0.17 -0.61,-0.32 -0.34,-0.15 -0.58,-0.27 -0.73,-0.37 -0.16,-0.1 -0.28,-0.23 -0.37,-0.39 -0.09,-0.16 -0.13,-0.34 -0.13,-0.55 0,-0.38 0.13,-0.69 0.39,-0.93 0.27,-0.25 0.65,-0.37 1.15,-0.37 0.5,0 0.89,0.12 1.17,0.37 0.27,0.24 0.43,0.56 0.45,0.97l-0.84 0.03c-0.02,-0.21 -0.1,-0.37 -0.23,-0.48 -0.12,-0.11 -0.31,-0.17 -0.56,-0.17 -0.24,0 -0.42,0.05 -0.52,0.13 -0.11,0.09 -0.16,0.2 -0.16,0.34 0,0.13 0.05,0.23 0.14,0.31 0.1,0.09 0.31,0.2 0.64,0.35 0.49,0.22 0.81,0.39 0.94,0.53 0.2,0.2 0.31,0.46 0.31,0.77 0,0.39 -0.15,0.73 -0.46,1 -0.3,0.28 -0.71,0.42 -1.25,0.42 -0.37,0 -0.69,-0.07 -0.96,-0.2 -0.27,-0.12 -0.46,-0.3 -0.58,-0.52 -0.11,-0.23 -0.16,-0.49 -0.15,-0.78zm3.9 1.42l0.9 -4.41 0.89 0 -0.75 3.67 2.19 0 -0.15 0.74 -3.08 0zm3.65 0l0.9 -4.41 3.19 0 -0.15 0.74 -2.3 0 -0.21 1 2.23 0 -0.15 0.73 -2.24 0 -0.26 1.2 2.5 0 -0.15 0.74 -3.36 0zm4.01 0l0.91 -4.41 3.18 0 -0.15 0.74 -2.3 0 -0.21 1 2.23 0 -0.15 0.73 -2.24 0 -0.25 1.2 2.5 0 -0.15 0.74 -3.37 0zm4.9 0l-0.88 0 0.9 -4.41 1.75 0c0.31,0 0.55,0.04 0.73,0.12 0.18,0.07 0.33,0.19 0.43,0.37 0.11,0.17 0.16,0.38 0.16,0.62 0,0.22 -0.04,0.44 -0.12,0.65 -0.09,0.21 -0.19,0.38 -0.31,0.5 -0.13,0.13 -0.26,0.22 -0.4,0.29 -0.14,0.06 -0.33,0.11 -0.57,0.15 -0.14,0.02 -0.4,0.03 -0.78,0.03l-0.57 0 -0.34 1.68zm0.5 -2.42l0.27 0c0.46,0 0.78,-0.03 0.93,-0.09 0.16,-0.06 0.28,-0.16 0.37,-0.29 0.09,-0.13 0.14,-0.27 0.14,-0.43 0,-0.1 -0.03,-0.19 -0.07,-0.26 -0.05,-0.07 -0.11,-0.12 -0.2,-0.15 -0.08,-0.03 -0.26,-0.04 -0.55,-0.04l-0.64 0 -0.25 1.26zm-6.37 15.93c-2.93,1.49 -6.53,0.31 -8.03,-2.62 -1.48,-2.94 -0.31,-6.54 2.63,-8.03 0.43,-0.22 0.89,-0.39 1.37,-0.5 -0.6,0.85 -0.99,1.83 -1.14,2.88 -0.19,1.33 0.03,2.67 0.64,3.87 0.61,1.2 1.56,2.17 2.75,2.81 0.93,0.49 1.95,0.76 2.99,0.77 -0.37,0.33 -0.77,0.6 -1.21,0.82zm1.92 -1.43c-2.48,0.26 -4.81,-1.01 -5.93,-3.23 -1.13,-2.22 -0.78,-4.85 0.89,-6.7 0.08,-0.09 0.1,-0.22 0.05,-0.32 -0.06,-0.11 -0.17,-0.17 -0.29,-0.16 -0.81,0.08 -1.59,0.31 -2.3,0.67 -3.22,1.63 -4.51,5.59 -2.88,8.81 1.63,3.22 5.58,4.51 8.81,2.88 0.71,-0.37 1.35,-0.86 1.9,-1.46 0.08,-0.09 0.09,-0.22 0.04,-0.33 -0.06,-0.11 -0.17,-0.17 -0.29,-0.16zm0.54 -3.77c-0.08,0.06 -0.12,0.15 -0.11,0.24l0.1 1.02 -0.87 -0.54c-0.08,-0.05 -0.18,-0.06 -0.27,-0.02l-0.93 0.4 0.25 -0.99c0.02,-0.09 0,-0.19 -0.07,-0.26l-0.67 -0.77 1.02 -0.07c0.09,0 0.18,-0.05 0.23,-0.14l0.52 -0.87 0.38 0.94c0.03,0.09 0.11,0.16 0.2,0.18l1 0.22 -0.78 0.66zm1.48 -1.1l-1.42 -0.31 -0.55 -1.35c-0.04,-0.1 -0.13,-0.17 -0.24,-0.18 -0.11,-0.01 -0.22,0.04 -0.27,0.14l-0.74 1.25 -1.45 0.1c-0.11,0 -0.21,0.07 -0.25,0.18 -0.04,0.1 -0.02,0.21 0.05,0.3l0.96 1.09 -0.35 1.41c-0.03,0.11 0,0.22 0.09,0.29 0.08,0.07 0.2,0.09 0.3,0.05l1.33 -0.58 1.24 0.77c0.08,0.06 0.19,0.06 0.28,0.01 0.01,0 0.02,0 0.02,-0.01 0.1,-0.06 0.15,-0.16 0.14,-0.27l-0.14 -1.45 1.12 -0.93c0.08,-0.07 0.12,-0.18 0.09,-0.29 -0.02,-0.11 -0.11,-0.19 -0.21,-0.22zm-5.04 -3.77l-0.22 -0.24 0.33 -0.02c0.08,-0.01 0.15,-0.05 0.19,-0.12l0.17 -0.28 0.12 0.3c0.03,0.07 0.09,0.13 0.17,0.15l0.32 0.07 -0.25 0.21c-0.06,0.05 -0.09,0.13 -0.09,0.21l0.03 0.32 -0.27 -0.17c-0.07,-0.05 -0.15,-0.05 -0.23,-0.02l-0.3 0.13 0.08 -0.32c0.02,-0.07 0,-0.16 -0.05,-0.22zm-0.28 1.18l0.63 -0.28 0.58 0.37c0.07,0.04 0.16,0.05 0.24,0.01 0.01,0 0.01,-0.01 0.02,-0.01 0.07,-0.05 0.12,-0.14 0.11,-0.23l-0.06 -0.68 0.52 -0.45c0.07,-0.06 0.11,-0.15 0.08,-0.24 -0.02,-0.09 -0.09,-0.16 -0.18,-0.18l-0.67 -0.15 -0.26 -0.64c-0.03,-0.08 -0.11,-0.14 -0.2,-0.15 -0.09,0 -0.18,0.04 -0.23,0.12l-0.35 0.59 -0.69 0.05c-0.09,0.01 -0.17,0.07 -0.2,0.15 -0.04,0.08 -0.02,0.18 0.04,0.25l0.45 0.52 -0.16 0.67c-0.03,0.08 0,0.18 0.07,0.24 0.07,0.06 0.17,0.07 0.26,0.04z"/>
 </g>
</svg>
