<?xml version="1.0" encoding="UTF-8"?>
<!DOCTYPE svg PUBLIC "-//W3C//DTD SVG 1.1//EN" "http://www.w3.org/Graphics/SVG/1.1/DTD/svg11.dtd">
<!-- Creator: CorelDRAW 2018 (64-Bit) -->
<svg xmlns="http://www.w3.org/2000/svg" xml:space="preserve" width="99px" height="99px" version="1.1" style="shape-rendering:geometricPrecision; text-rendering:geometricPrecision; image-rendering:optimizeQuality; fill-rule:evenodd; clip-rule:evenodd"
viewBox="0 0 11.01 11.01"
 xmlns:xlink="http://www.w3.org/1999/xlink">
 <defs>
  <style type="text/css">
   <![CDATA[
    .fil0 {fill:url(#id0)}
   ]]>
  </style>
  <radialGradient id="id0" gradientUnits="userSpaceOnUse" gradientTransform="matrix(1 -0 -0 1 0 0)" cx="5.5" cy="5.39" r="9.19" fx="5.5" fy="5.39">
   <stop offset="0" style="stop-opacity:1; stop-color:#949494"/>
   <stop offset="1" style="stop-opacity:1; stop-color:black"/>
  </radialGradient>
 </defs>
 <g id="Слой_x0020_1">
  <metadata id="CorelCorpID_0Corel-Layer"/>
  <path class="fil0" d="M0 0l11.01 0 0 11.01 -11.01 0 0 -11.01zm4.16 3.97l2.39 -2.02c0.04,-0.02 0.08,-0.01 0.1,0 0.04,0.03 0.07,0.07 0.07,0.12l0 7.09c0,0.05 -0.03,0.1 -0.07,0.12 -0.03,0.02 -0.07,0.02 -0.1,0.01l-2.37 -2.18 0 -0.78c0,-0.14 -0.11,-0.25 -0.25,-0.25 -0.13,0 -0.25,0.11 -0.25,0.25l0 0.64 -1.46 0 0 -2.89 1.54 0 0.24 0 0.16 -0.11zm2.74 -2.45c-0.2,-0.11 -0.43,-0.11 -0.63,0.01 -0.01,0 -0.02,0.01 -0.03,0.02l-2.4 2.03 -1.87 0c-0.14,0 -0.25,0.11 -0.25,0.25l0 3.39c0,0.07 0.03,0.13 0.07,0.18 0.05,0.05 0.11,0.07 0.18,0.07l1.87 0 2.4 2.21c0.01,0.01 0.02,0.02 0.03,0.03 0.1,0.05 0.21,0.08 0.32,0.08 0.11,0 0.22,-0.02 0.31,-0.08 0.2,-0.11 0.32,-0.32 0.32,-0.55l0 -7.09c0,-0.23 -0.12,-0.44 -0.32,-0.55zm0.74 4.38c-0.11,0 -0.2,-0.09 -0.2,-0.2 0,-0.11 0.09,-0.2 0.2,-0.2l0.78 0c0.1,0 0.19,0.09 0.19,0.2 0,0.11 -0.09,0.2 -0.19,0.2l-0.78 0zm-0.13 1.62c-0.09,-0.05 -0.12,-0.17 -0.07,-0.27 0.05,-0.09 0.17,-0.12 0.27,-0.07l0.86 0.5c0.09,0.05 0.12,0.17 0.07,0.26 -0.06,0.1 -0.18,0.13 -0.27,0.07l-0.86 -0.49zm0.2 -3.28c-0.1,0.06 -0.22,0.02 -0.27,-0.07 -0.05,-0.09 -0.02,-0.21 0.07,-0.27l0.86 -0.49c0.09,-0.05 0.21,-0.02 0.27,0.07 0.05,0.09 0.02,0.21 -0.07,0.27l-0.86 0.49z"/>
 </g>
</svg>
