<?xml version="1.0" encoding="UTF-8"?>
<!DOCTYPE svg PUBLIC "-//W3C//DTD SVG 1.1//EN" "http://www.w3.org/Graphics/SVG/1.1/DTD/svg11.dtd">
<!-- Creator: CorelDRAW 2018 (64-Bit) -->
<svg xmlns="http://www.w3.org/2000/svg" xml:space="preserve" width="99px" height="99px" version="1.1" style="shape-rendering:geometricPrecision; text-rendering:geometricPrecision; image-rendering:optimizeQuality; fill-rule:evenodd; clip-rule:evenodd"
viewBox="0 0 829818 829818"
 xmlns:xlink="http://www.w3.org/1999/xlink">
 <defs>
  <style type="text/css">
   <![CDATA[
    .fil1 {fill:#FEFEFE}
    .fil0 {fill:url(#id0)}
   ]]>
  </style>
  <radialGradient id="id0" gradientUnits="objectBoundingBox" cx="50%" cy="50%" r="50%" fx="50%" fy="50%">
   <stop offset="0" style="stop-opacity:1; stop-color:#949494"/>
   <stop offset="1" style="stop-opacity:1; stop-color:black"/>
  </radialGradient>
 </defs>
 <g id="Слой_x0020_1">
  <metadata id="CorelCorpID_0Corel-Layer"/>
  <polygon class="fil0" points="0,0 829818,0 829818,829818 0,829818 "/>
  <path class="fil1" d="M373249.8 229452.3c11701.8,-9672.3 12206.7,-81150.3 39085.2,-109731.6 30571.2,-32501.7 91446.3,-20126.7 118958.4,9850.5 45738,49797 15057.9,131105.7 8177.4,157756.5l80021.7 2465.1c32184.9,3692.7 57202.2,23265 67775.4,54954.9 13513.5,40550.4 6840.9,78724.8 -12365.1,94624.2 13919.4,25769.7 4950,56677.5 -8019,77586.3 8622.9,34838.1 -7504.2,63944.1 -23383.8,84951.9 3069,99861.3 -94624.2,116721 -184783.5,104148 -73032.3,-10167.3 -138501,-38481.3 -180882.9,-45678.6l-106504.2 0c-34105.5,-3900.6 -36729,-32036.4 -35709.3,-50470.2l0 -233937c594,-21186 8860.5,-36531 37560.6,-38174.4l106494.3 0 93574.8 -108345.6zm-98376.3 151747.2l158.4 233897.4c55895.4,237.6 117018,35818.2 178704.9,44371.8 24354,3385.8 84318.3,4860.9 107118,-1544.4 34778.7,-9771.3 40629.6,-35006.4 38075.4,-76338.9 21532.5,-25947.9 29987.1,-37550.7 19611.9,-74428.2 6078.6,-7266.6 31432.5,-40609.8 5603.4,-77229.9 31779,-24086.7 36026.1,-75764.7 -3514.5,-91941.3 -16146.9,-6623.1 -119879.1,-3762 -145737.9,-3494.7 -3187.8,-46173.6 39481.2,-75507.3 33204.6,-134461.8 -2801.7,-26433 -11266.2,-44866.8 -34115.4,-50668.2 -58073.4,-14721.3 -21681,65191.5 -73418.4,117770.4 -5058.9,5148 -5247,5999.4 -9989.1,12177l-57667.5 71913.6c-14117.4,15463.8 -27531.9,29769.3 -58033.8,29977.2zm-91921.5 208791c12879.9,0 23324.4,10444.5 23324.4,23324.4 0,12879.9 -10444.5,23324.4 -23324.4,23324.4 -12879.9,0 -23324.4,-10444.5 -23324.4,-23324.4 0,-12879.9 10444.5,-23324.4 23324.4,-23324.4z"/>
 </g>
</svg>
