<?xml version="1.0" encoding="UTF-8"?>
<!DOCTYPE svg PUBLIC "-//W3C//DTD SVG 1.1//EN" "http://www.w3.org/Graphics/SVG/1.1/DTD/svg11.dtd">
<!-- Creator: CorelDRAW 2018 (64-Bit) -->
<svg xmlns="http://www.w3.org/2000/svg" xml:space="preserve" width="35px" height="35px" version="1.1" style="shape-rendering:geometricPrecision; text-rendering:geometricPrecision; image-rendering:optimizeQuality; fill-rule:evenodd; clip-rule:evenodd"
viewBox="0 0 1.56 1.56"
 xmlns:xlink="http://www.w3.org/1999/xlink">
 <defs>
  <style type="text/css">
   <![CDATA[
    .fil0 {fill:url(#id0)}
   ]]>
  </style>
  <radialGradient id="id0" gradientUnits="userSpaceOnUse" gradientTransform="matrix(1 -0 -0 1 0 0)" cx="0.78" cy="0.78" r="3.78" fx="0.78" fy="0.78">
   <stop offset="0" style="stop-opacity:1; stop-color:#949494"/>
   <stop offset="1" style="stop-opacity:1; stop-color:black"/>
  </radialGradient>
 </defs>
 <g id="Слой_x0020_1">
  <metadata id="CorelCorpID_0Corel-Layer"/>
  <path class="fil0" d="M0 0l1.56 0 0 1.56 -1.56 0 0 -1.56zm0.25 0.52c-0.01,-0.01 -0.02,-0.03 -0.01,-0.05 0.01,-0.01 0.03,-0.02 0.05,-0.01l0.08 0.05 0 -0.11c0,-0.01 0.02,-0.03 0.03,-0.03 0.02,0 0.04,0.01 0.04,0.03l0 0.15 0.12 0.07 0 -0.15c0,-0.02 0.01,-0.03 0.03,-0.03 0.01,0 0.01,0 0.02,0l0 0 0.14 0.08 0 -0.15c0,0 0,0 0,0 0,0 0,0 0,0l-0.13 -0.08c-0.01,-0.01 -0.02,-0.03 -0.01,-0.04 0.01,-0.02 0.03,-0.02 0.05,-0.01l0.09 0.05 0 -0.1c0,-0.02 0.01,-0.03 0.03,-0.03 0.02,0 0.04,0.01 0.04,0.03l0 0.1 0.08 -0.05c0.02,-0.01 0.04,-0.01 0.05,0.01 0.01,0.02 0,0.04 -0.01,0.05l-0.12 0.07 0 0.14 0.12 -0.07c0.02,-0.01 0.04,-0.01 0.05,0.01 0,0 0,0.01 0,0.02l0 0.15 0.13 -0.07c0,0 0,0 0,0 0,0 0,0 0,0l0.01 -0.15c0,-0.02 0.01,-0.03 0.03,-0.03 0.02,0 0.03,0.01 0.03,0.03l0 0.11 0.09 -0.05c0.01,-0.01 0.03,0 0.04,0.01 0.01,0.02 0.01,0.04 -0.01,0.05l-0.09 0.05 0.09 0.05c0.02,0.01 0.03,0.03 0.02,0.04 -0.01,0.02 -0.03,0.03 -0.05,0.02l-0.12 -0.07 -0.12 0.07 0.12 0.07c0.02,0.01 0.03,0.03 0.02,0.04 -0.01,0.01 -0.01,0.01 -0.02,0.02l0 0 -0.13 0.08 0.12 0.07c0,0 0,0 0,0 0,0 0,0 0.01,0l0.12 -0.07c0.02,-0.01 0.04,0 0.05,0.01 0.01,0.02 0,0.04 -0.01,0.05l-0.1 0.05 0.09 0.05c0.01,0.01 0.02,0.03 0.01,0.05 -0.01,0.01 -0.03,0.02 -0.05,0.01l-0.08 -0.05 0 0.1c0,0.02 -0.01,0.04 -0.03,0.04 -0.02,0 -0.04,-0.02 -0.04,-0.04l0 -0.14 -0.11 -0.07 0 0.15c0,0.02 -0.02,0.03 -0.04,0.03 0,0 -0.01,0 -0.01,0l0 0 -0.14 -0.08 0 0.15 0.12 0.07c0.02,0.01 0.02,0.03 0.01,0.05 -0.01,0.02 -0.03,0.02 -0.05,0.01l-0.08 -0.05 0 0.09c0,0.02 -0.02,0.03 -0.04,0.03 -0.02,0 -0.03,-0.01 -0.03,-0.03l0 -0.1 -0.09 0.06c-0.02,0.01 -0.04,0 -0.05,-0.01 -0.01,-0.02 0,-0.04 0.01,-0.05l0.13 -0.08 0 -0.13 -0.13 0.08c-0.01,0.01 -0.03,0 -0.04,-0.02 -0.01,0 -0.01,-0.01 -0.01,-0.01l0 -0.16 -0.13 0.07 0 0.14c0,0.02 -0.02,0.04 -0.04,0.04 -0.02,0 -0.03,-0.02 -0.03,-0.04l0 -0.1 -0.08 0.05c-0.01,0.01 -0.04,0 -0.05,-0.02 0,-0.01 0,-0.03 0.02,-0.04l0.08 -0.05 -0.09 -0.05c-0.02,-0.01 -0.02,-0.03 -0.02,-0.05 0.01,-0.01 0.03,-0.02 0.05,-0.01l0.13 0.07 0.11 -0.06 -0.12 -0.08c-0.02,-0.01 -0.02,-0.03 -0.01,-0.04 0,-0.01 0,-0.01 0.01,-0.01l0 0 0.14 -0.09 -0.14 -0.07 -0.12 0.07c-0.02,0 -0.04,0 -0.05,-0.02 -0.01,-0.02 0,-0.04 0.02,-0.04l0.08 -0.05 -0.08 -0.05zm0.37 0.14l0.13 0.07 0 -0.13 -0.13 -0.07 0 0.13zm0.2 -0.08l0 0.15 0.11 -0.07 -0.01 -0.14 -0.1 0.06zm0.15 0.13l-0.12 0.08 0.11 0.06 0.12 -0.07 -0.11 -0.07zm-0.03 0.21l-0.12 -0.07 0 0.12 0.12 0.07 0 -0.12zm-0.19 0.07l0 -0.15 -0.11 0.07 0 0.14 0.11 -0.06zm-0.16 -0.13l0.12 -0.07 -0.11 -0.07 -0.12 0.07 0.11 0.07z"/>
 </g>
</svg>
