<?xml version="1.0" encoding="UTF-8"?>
<!DOCTYPE svg PUBLIC "-//W3C//DTD SVG 1.1//EN" "http://www.w3.org/Graphics/SVG/1.1/DTD/svg11.dtd">
<!-- Creator: CorelDRAW 2018 (64-Bit) -->
<svg xmlns="http://www.w3.org/2000/svg" xml:space="preserve" width="35px" height="35px" version="1.1" style="shape-rendering:geometricPrecision; text-rendering:geometricPrecision; image-rendering:optimizeQuality; fill-rule:evenodd; clip-rule:evenodd"
viewBox="0 0 1.86 1.86"
 xmlns:xlink="http://www.w3.org/1999/xlink">
 <defs>
  <style type="text/css">
   <![CDATA[
    .fil0 {fill:url(#id0)}
   ]]>
  </style>
  <radialGradient id="id0" gradientUnits="userSpaceOnUse" gradientTransform="matrix(1 -0 -0 1 0 0)" cx="0.93" cy="0.93" r="4.38" fx="0.93" fy="0.93">
   <stop offset="0" style="stop-opacity:1; stop-color:#949494"/>
   <stop offset="1" style="stop-opacity:1; stop-color:black"/>
  </radialGradient>
 </defs>
 <g id="Слой_x0020_1">
  <metadata id="CorelCorpID_0Corel-Layer"/>
  <path class="fil0" d="M0 0l1.86 0 0 1.86 -1.86 0 0 -1.86zm0.6 0.31l0.07 0.12c0,0.01 0.02,0.02 0.03,0.01l0.04 -0.02c0.01,-0.01 0.02,-0.02 0.01,-0.04l-0.06 -0.12c-0.01,-0.01 -0.02,-0.02 -0.04,-0.01l-0.03 0.02c-0.02,0.01 -0.02,0.02 -0.02,0.04zm0.26 -0.1l0.02 0.14c0,0.01 0.01,0.02 0.03,0.02l0.04 0c0.01,0 0.02,-0.02 0.02,-0.03l-0.01 -0.14c0,-0.01 -0.02,-0.02 -0.03,-0.02l-0.04 0c-0.02,0 -0.03,0.02 -0.03,0.03zm0.28 0.01l-0.04 0.13c0,0.02 0.01,0.03 0.02,0.03l0.04 0.02c0.01,0 0.03,-0.01 0.03,-0.02l0.04 -0.13c0.01,-0.02 0,-0.03 -0.02,-0.04l-0.04 -0.01c-0.01,0 -0.02,0.01 -0.03,0.02zm0.25 0.11l-0.08 0.11c-0.01,0.01 -0.01,0.03 0,0.04l0.04 0.02c0.01,0.01 0.02,0.01 0.03,0l0.09 -0.11c0.01,-0.01 0.01,-0.03 -0.01,-0.04l-0.03 -0.02c-0.01,-0.01 -0.03,-0.01 -0.04,0zm0.2 0.2l-0.12 0.07c-0.01,0.01 -0.02,0.02 -0.01,0.03l0.02 0.04c0.01,0.01 0.02,0.02 0.04,0.01l0.11 -0.07c0.02,0 0.02,-0.02 0.01,-0.03l-0.02 -0.04c0,-0.01 -0.02,-0.02 -0.03,-0.01zm0.1 0.26l-0.13 0.02c-0.02,0 -0.03,0.01 -0.03,0.03l0.01 0.04c0,0.01 0.01,0.02 0.03,0.02l0.13 -0.02c0.02,0 0.03,-0.01 0.03,-0.03l-0.01 -0.04c0,-0.01 -0.01,-0.02 -0.03,-0.02zm-0.15 0.22l-0.02 0.06c-0.08,0.29 -0.38,0.48 -0.68,0.4 -0.28,-0.07 -0.46,-0.34 -0.42,-0.63l0.09 0.03c0.02,0 0.04,-0.01 0.03,-0.03l-0.09 -0.37c-0.01,-0.02 -0.03,-0.03 -0.05,-0.01l-0.26 0.26c-0.02,0.02 -0.01,0.04 0.01,0.05l0.09 0.02c-0.07,0.38 0.17,0.76 0.55,0.86 0.4,0.11 0.81,-0.14 0.92,-0.54l0.01 -0.04c0,-0.02 0,-0.03 -0.02,-0.04l-0.13 -0.03c-0.01,-0.01 -0.03,0 -0.03,0.01zm-0.37 0.03l0 -0.13c0,-0.02 0,-0.05 0,-0.05l0 0c0,0 -0.01,0.03 -0.02,0.04l-0.09 0.14 0 0 0.11 0zm-0.19 0.01l0.18 -0.26 0.09 0 0 0.25 0.05 0 0 0.06 -0.05 0 0 0.11 -0.08 0 0 -0.11 -0.19 0 0 -0.05zm-0.32 0.12c0,-0.15 0.19,-0.17 0.19,-0.26 0,-0.03 -0.03,-0.06 -0.06,-0.06 -0.05,0 -0.08,0.05 -0.08,0.05l-0.05 -0.03c0,0 0.03,-0.09 0.13,-0.09 0.08,0 0.14,0.05 0.14,0.13 0,0.13 -0.19,0.15 -0.19,0.23l0.19 0 0 0.07 -0.27 0c0,-0.02 0,-0.03 0,-0.04z"/>
 </g>
</svg>
