<?xml version="1.0" encoding="UTF-8"?>
<!DOCTYPE svg PUBLIC "-//W3C//DTD SVG 1.1//EN" "http://www.w3.org/Graphics/SVG/1.1/DTD/svg11.dtd">
<!-- Creator: CorelDRAW 2018 (64-Bit) -->
<svg xmlns="http://www.w3.org/2000/svg" xml:space="preserve" width="35px" height="35px" version="1.1" style="shape-rendering:geometricPrecision; text-rendering:geometricPrecision; image-rendering:optimizeQuality; fill-rule:evenodd; clip-rule:evenodd"
viewBox="0 0 2.81 2.81"
 xmlns:xlink="http://www.w3.org/1999/xlink">
 <defs>
  <style type="text/css">
   <![CDATA[
    .fil0 {fill:url(#id0)}
   ]]>
  </style>
  <radialGradient id="id0" gradientUnits="userSpaceOnUse" gradientTransform="matrix(1 -0 -0 1 0 0)" cx="1.4" cy="1.4" r="6.64" fx="1.4" fy="1.4">
   <stop offset="0" style="stop-opacity:1; stop-color:#949494"/>
   <stop offset="1" style="stop-opacity:1; stop-color:#2B2A29"/>
  </radialGradient>
 </defs>
 <g id="Слой_x0020_1">
  <metadata id="CorelCorpID_0Corel-Layer"/>
  <path class="fil0" d="M0 0l2.81 0 0 2.81 -2.81 0 0 -2.81zm1.8 1.55c0.09,0.05 0.16,0.12 0.22,0.21 0.05,0.08 0.08,0.19 0.08,0.3 0,0.16 -0.06,0.31 -0.17,0.41 -0.1,0.1 -0.25,0.17 -0.41,0.17 -0.16,0 -0.3,-0.07 -0.41,-0.17 -0.1,-0.1 -0.16,-0.25 -0.16,-0.41 0,-0.11 0.03,-0.22 0.08,-0.3 0.05,-0.09 0.13,-0.16 0.22,-0.21l0 -1.06c0,-0.07 0.03,-0.14 0.08,-0.19 0.05,-0.05 0.12,-0.08 0.19,-0.08 0.08,0 0.15,0.03 0.2,0.08 0.05,0.05 0.08,0.12 0.08,0.19l0 1.06zm0.15 0.24c-0.05,-0.08 -0.12,-0.14 -0.2,-0.18l-0.02 -0.01 0 -0.03 0 0 0 -1.08c0,-0.05 -0.02,-0.1 -0.06,-0.14 -0.04,-0.04 -0.09,-0.06 -0.15,-0.06 -0.05,0 -0.1,0.02 -0.14,0.06 -0.04,0.04 -0.06,0.09 -0.06,0.14l0 1.08c0,0 0,0 0,0l0 0.03 -0.02 0.01c-0.09,0.04 -0.16,0.1 -0.21,0.18 -0.04,0.08 -0.07,0.17 -0.07,0.27 0,0.14 0.05,0.27 0.15,0.36 0.09,0.09 0.21,0.15 0.35,0.15 0.14,0 0.27,-0.06 0.36,-0.15 0.09,-0.09 0.15,-0.22 0.15,-0.36 0,-0.1 -0.03,-0.19 -0.08,-0.27zm-0.58 -0.16l0 -0.13 0.11 0 0 -0.05 -0.11 0 0 -0.29c0,-0.04 0.02,-0.08 0.05,-0.11 0.03,-0.02 0.07,-0.04 0.11,-0.04 0.04,0 0.08,0.02 0.11,0.04 0.03,0.03 0.04,0.07 0.04,0.11l0 0.47c0.09,0.03 0.16,0.09 0.21,0.16 0.06,0.07 0.09,0.17 0.09,0.27 0,0.12 -0.05,0.24 -0.13,0.32 -0.08,0.08 -0.2,0.13 -0.32,0.13 -0.13,0 -0.24,-0.05 -0.32,-0.13 -0.08,-0.08 -0.13,-0.2 -0.13,-0.32 0,-0.1 0.03,-0.2 0.09,-0.27 0.05,-0.07 0.12,-0.13 0.2,-0.16zm0.08 -0.06l0 0.11 -0.03 0.01c-0.08,0.03 -0.15,0.07 -0.2,0.14 -0.04,0.06 -0.07,0.14 -0.07,0.23 0,0.1 0.04,0.2 0.11,0.27 0.07,0.07 0.16,0.11 0.27,0.11 0.1,0 0.2,-0.04 0.27,-0.11 0.07,-0.07 0.11,-0.17 0.11,-0.27 0,-0.09 -0.03,-0.17 -0.08,-0.23 -0.04,-0.07 -0.11,-0.11 -0.19,-0.14l-0.03 -0.01 0 -0.52c0,-0.02 -0.01,-0.04 -0.02,-0.06 -0.02,-0.01 -0.04,-0.02 -0.06,-0.02 -0.02,0 -0.04,0.01 -0.06,0.02 -0.01,0.02 -0.02,0.04 -0.02,0.06l0 0.22 0.1 0 0 0.19 -0.1 0zm0.43 -1.18l0.24 0c0.02,0 0.03,0.01 0.03,0.03l0 0c0,0.02 -0.01,0.03 -0.03,0.03l-0.24 0c-0.01,0 -0.03,-0.01 -0.03,-0.03l0 0c0,-0.02 0.02,-0.03 0.03,-0.03zm0 0.16l0.12 0c0.02,0 0.03,0.01 0.03,0.03l0 0c0,0.02 -0.01,0.03 -0.03,0.03l-0.12 0c-0.01,0 -0.03,-0.01 -0.03,-0.03l0 0c0,-0.02 0.02,-0.03 0.03,-0.03zm0 0.16l0.24 0c0.02,0 0.03,0.01 0.03,0.03l0 0c0,0.02 -0.01,0.03 -0.03,0.03l-0.24 0c-0.01,0 -0.03,-0.01 -0.03,-0.03l0 0c0,-0.02 0.02,-0.03 0.03,-0.03zm0 0.16l0.12 0c0.02,0 0.03,0.01 0.03,0.03l0 0c0,0.02 -0.01,0.03 -0.03,0.03l-0.12 0c-0.01,0 -0.03,-0.01 -0.03,-0.03l0 0c0,-0.02 0.02,-0.03 0.03,-0.03zm0 0.16l0.24 0c0.02,0 0.03,0.01 0.03,0.03l0 0c0,0.02 -0.01,0.03 -0.03,0.03l-0.24 0c-0.01,0 -0.03,-0.01 -0.03,-0.03l0 0c0,-0.02 0.02,-0.03 0.03,-0.03zm0 0.16l0.12 0c0.02,0 0.03,0.01 0.03,0.03l0 0c0,0.02 -0.01,0.03 -0.03,0.03l-0.12 0c-0.01,0 -0.03,-0.01 -0.03,-0.03l0 0c0,-0.02 0.02,-0.03 0.03,-0.03zm0 0.16l0.24 0c0.02,0 0.03,0.01 0.03,0.03l0 0c0,0.02 -0.01,0.03 -0.03,0.03l-0.24 0c-0.01,0 -0.03,-0.01 -0.03,-0.03l0 0c0,-0.02 0.02,-0.03 0.03,-0.03zm-1.02 0.98c0,-0.01 0.01,-0.03 0.02,-0.03 0.01,-0.01 0.03,0 0.04,0.01 0,0.02 0.01,0.03 0.02,0.05 0.01,0.02 0.02,0.03 0.03,0.05 0.01,0.01 0.01,0.03 -0.01,0.04 -0.01,0.01 -0.03,0.01 -0.04,-0.01 -0.01,-0.02 -0.02,-0.03 -0.03,-0.05 -0.01,-0.02 -0.02,-0.04 -0.03,-0.06zm0.13 0.19c-0.01,-0.01 -0.01,-0.03 0,-0.04 0.01,-0.01 0.03,0 0.04,0.01 0.01,0.01 0.02,0.02 0.03,0.03 0.01,0.02 0.03,0.03 0.04,0.04 0.01,0.01 0.01,0.02 0,0.04 0,0.01 -0.02,0.01 -0.03,0 -0.02,-0.01 -0.03,-0.02 -0.04,-0.04 -0.02,-0.01 -0.03,-0.03 -0.04,-0.04zm0.16 0.15c-0.01,-0.01 -0.01,-0.03 -0.01,-0.04 0.01,-0.02 0.03,-0.02 0.04,-0.01 0.02,0.01 0.04,0.02 0.05,0.02 0.02,0.01 0.04,0.02 0.06,0.03 0.01,0 0.02,0.02 0.01,0.03 0,0.02 -0.02,0.02 -0.03,0.02 -0.02,-0.01 -0.04,-0.02 -0.06,-0.02 -0.02,-0.01 -0.04,-0.02 -0.06,-0.03zm-0.7 -2.26c-0.01,-0.01 -0.02,-0.02 -0.01,-0.03 0,-0.01 0.02,-0.02 0.03,-0.01l0.05 0.03 0 -0.07c0,-0.01 0.01,-0.02 0.02,-0.02 0.01,0 0.02,0.01 0.02,0.02l0 0.09 0.07 0.04 0 -0.08c0,-0.01 0.01,-0.02 0.02,-0.02 0.01,0 0.01,0 0.01,0l0 0 0.09 0.05 0 -0.09c0,0 0,0 0,0 0,-0.01 0,-0.01 0,-0.01l-0.08 -0.04c-0.01,-0.01 -0.01,-0.02 -0.01,-0.03 0.01,-0.01 0.02,-0.02 0.03,-0.01l0.06 0.04 0 -0.07c0,-0.01 0.01,-0.02 0.02,-0.02 0.01,0 0.02,0.01 0.02,0.02l0 0.07 0.05 -0.04c0.01,0 0.03,0 0.03,0.01 0.01,0.01 0,0.02 -0.01,0.03l-0.07 0.04 0 0.09 0.08 -0.05c0.01,0 0.02,0 0.02,0.01 0.01,0 0.01,0.01 0.01,0.01l0 0.1 0.07 -0.05c0,0 0,0 0.01,0 0,0 0,0 0,0l0 -0.09c0,-0.01 0.01,-0.02 0.02,-0.02 0.01,0 0.02,0.01 0.02,0.02l0 0.07 0.05 -0.03c0.01,-0.01 0.02,0 0.03,0.01 0.01,0.01 0,0.02 -0.01,0.02l-0.05 0.03 0.05 0.03c0.01,0.01 0.02,0.02 0.01,0.03 0,0.01 -0.02,0.02 -0.03,0.01l-0.07 -0.04 -0.07 0.04 0.07 0.04c0.01,0.01 0.02,0.02 0.01,0.03 0,0.01 0,0.01 -0.01,0.01l0 0 -0.08 0.05 0.07 0.04c0,0 0,0 0.01,0 0,0 0,0 0,0l0.08 -0.04c0.01,0 0.02,0 0.02,0.01 0.01,0.01 0.01,0.02 0,0.03l-0.06 0.03 0.05 0.03c0.01,0.01 0.01,0.02 0.01,0.03 -0.01,0.01 -0.02,0.01 -0.03,0.01l-0.05 -0.03 0 0.06c0,0.01 -0.01,0.02 -0.02,0.02 -0.01,0 -0.02,-0.01 -0.02,-0.02l0 -0.09 -0.07 -0.04 0 0.09c0,0.01 -0.01,0.02 -0.02,0.02 -0.01,0 -0.01,0 -0.02,0l0 0 -0.08 -0.05 0 0.09 0.07 0.05c0.01,0 0.02,0.01 0.01,0.02 0,0.01 -0.02,0.02 -0.03,0.01l-0.05 -0.03 0 0.05c0,0.02 -0.01,0.03 -0.02,0.03 -0.01,0 -0.02,-0.01 -0.02,-0.03l0 -0.05 -0.06 0.03c-0.01,0 -0.02,0 -0.03,-0.01 0,-0.01 0,-0.02 0.01,-0.03l0.08 -0.04 0 -0.08 -0.08 0.04c-0.01,0.01 -0.02,0 -0.03,0 0,-0.01 0,-0.01 0,-0.02l0 -0.09 -0.08 0.04 0 0.09c0,0.01 -0.01,0.02 -0.02,0.02 -0.02,0 -0.02,-0.01 -0.02,-0.02l0 -0.06 -0.05 0.02c-0.01,0.01 -0.02,0.01 -0.03,0 -0.01,-0.01 0,-0.03 0.01,-0.03l0.05 -0.03 -0.06 -0.03c-0.01,-0.01 -0.01,-0.02 -0.01,-0.03 0.01,-0.01 0.02,-0.01 0.03,-0.01l0.08 0.04 0.07 -0.04 -0.08 -0.04c-0.01,0 -0.01,-0.02 0,-0.03 0,0 0,0 0,0l0 0 0.09 -0.05 -0.08 -0.05 -0.08 0.04c-0.01,0.01 -0.02,0 -0.03,-0.01 0,-0.01 0,-0.02 0.01,-0.03l0.06 -0.03 -0.05 -0.02zm0.22 0.08l0.08 0.04 0 -0.08 -0.08 -0.04 0 0.08zm0.12 -0.05l0 0.09 0.07 -0.04 0 -0.08 -0.07 0.03zm0.09 0.08l-0.07 0.05 0.07 0.04 0.07 -0.05 -0.07 -0.04zm-0.02 0.13l-0.07 -0.05 0 0.08 0.07 0.04 0 -0.07zm-0.11 0.04l0 -0.09 -0.07 0.04 0 0.09 0.07 -0.04zm-0.1 -0.08l0.08 -0.04 -0.07 -0.04 -0.07 0.04 0.06 0.04z"/>
 </g>
</svg>
