<?xml version="1.0" encoding="UTF-8"?>
<!DOCTYPE svg PUBLIC "-//W3C//DTD SVG 1.1//EN" "http://www.w3.org/Graphics/SVG/1.1/DTD/svg11.dtd">
<!-- Creator: CorelDRAW 2018 (64-Bit) -->
<svg xmlns="http://www.w3.org/2000/svg" xml:space="preserve" width="35px" height="35px" version="1.1" style="shape-rendering:geometricPrecision; text-rendering:geometricPrecision; image-rendering:optimizeQuality; fill-rule:evenodd; clip-rule:evenodd"
viewBox="0 0 2.23 2.23"
 xmlns:xlink="http://www.w3.org/1999/xlink">
 <defs>
  <style type="text/css">
   <![CDATA[
    .fil0 {fill:url(#id0)}
   ]]>
  </style>
  <radialGradient id="id0" gradientUnits="userSpaceOnUse" gradientTransform="matrix(1 -0 -0 1 0 0)" cx="1.12" cy="1.12" r="5.27" fx="1.12" fy="1.12">
   <stop offset="0" style="stop-opacity:1; stop-color:#949494"/>
   <stop offset="1" style="stop-opacity:1; stop-color:black"/>
  </radialGradient>
 </defs>
 <g id="Слой_x0020_1">
  <metadata id="CorelCorpID_0Corel-Layer"/>
  <path class="fil0" d="M0 0l2.23 0 0 2.23 -2.23 0 0 -2.23zm1.18 0.79l-0.13 0 0 -0.39 0.13 0 0 0.39zm0.91 0.52l0 0.13 -0.39 0 0 -0.13 0.39 0zm-1.56 0.13l-0.39 0 0 -0.13 0.39 0 0 0.13zm0.13 -0.44l-0.28 -0.27 0.09 -0.09 0.28 0.27 -0.09 0.09zm0.91 0l-0.09 -0.09 0.28 -0.27 0.09 0.09 -0.28 0.27zm-0.9 0.44c0,-0.02 0,-0.03 -0.01,-0.04 0,-0.01 0,-0.02 0,-0.03 0,-0.06 0.01,-0.12 0.04,-0.18 0.02,-0.05 0.05,-0.1 0.09,-0.14 0.05,-0.04 0.09,-0.07 0.15,-0.1 0.05,-0.02 0.11,-0.03 0.18,-0.03 0.06,0 0.12,0.01 0.17,0.03 0.06,0.03 0.1,0.06 0.15,0.1 0.04,0.04 0.07,0.09 0.09,0.14 0.03,0.06 0.04,0.12 0.04,0.18 0,0.01 0,0.02 0,0.03 0,0.01 -0.01,0.02 -0.01,0.04l-0.13 0c0.01,-0.02 0.01,-0.05 0.01,-0.07 0,-0.04 -0.01,-0.09 -0.03,-0.12 -0.01,-0.04 -0.04,-0.08 -0.07,-0.11 -0.03,-0.03 -0.06,-0.05 -0.1,-0.07 -0.04,-0.01 -0.08,-0.02 -0.12,-0.02 -0.05,0 -0.09,0.01 -0.13,0.02 -0.04,0.02 -0.07,0.04 -0.1,0.07 -0.03,0.03 -0.06,0.07 -0.07,0.11 -0.02,0.03 -0.03,0.08 -0.03,0.12 0,0.02 0,0.05 0.01,0.07l-0.13 0zm-0.53 0.13l1.95 0 0 0.12 -1.95 0 0 -0.12zm0.66 -1.01l0.12 0.21 -0.07 0.05 -0.13 -0.22 0.08 -0.04zm0.62 0.02l-0.12 0.22 0.08 0.04 0.12 -0.22 -0.08 -0.04zm0.46 0.45l-0.24 0.07 0.03 0.09 0.24 -0.07 -0.03 -0.09zm-1.53 0l0.23 0.07 -0.02 0.09 -0.24 -0.07 0.03 -0.09z"/>
 </g>
</svg>
