<?xml version="1.0" encoding="UTF-8"?>
<!DOCTYPE svg PUBLIC "-//W3C//DTD SVG 1.1//EN" "http://www.w3.org/Graphics/SVG/1.1/DTD/svg11.dtd">
<!-- Creator: CorelDRAW 2018 (64-Bit) -->
<svg xmlns="http://www.w3.org/2000/svg" xml:space="preserve" width="35px" height="35px" version="1.1" style="shape-rendering:geometricPrecision; text-rendering:geometricPrecision; image-rendering:optimizeQuality; fill-rule:evenodd; clip-rule:evenodd"
viewBox="0 0 5.81 5.81"
 xmlns:xlink="http://www.w3.org/1999/xlink">
 <defs>
  <style type="text/css">
   <![CDATA[
    .fil0 {fill:url(#id0)}
   ]]>
  </style>
  <radialGradient id="id0" gradientUnits="userSpaceOnUse" gradientTransform="matrix(1 -0 -0 0.999966 0 0)" cx="2.9" cy="2.9" r="13.71" fx="2.9" fy="2.9">
   <stop offset="0" style="stop-opacity:1; stop-color:#949494"/>
   <stop offset="1" style="stop-opacity:1; stop-color:black"/>
  </radialGradient>
 </defs>
 <g id="Слой_x0020_1">
  <metadata id="CorelCorpID_0Corel-Layer"/>
  <path class="fil0" d="M0 0l5.81 0 0 5.81 -5.81 0 0 -5.81zm3.02 1.66l-0.34 0 0 -1.05 0.34 0 0 1.05zm-0.08 2.31l-0.23 0 0.12 -0.11 0.11 0.11zm1 -0.69c0.42,0.03 0.86,0.09 1.09,0.21 0.38,0.34 0.49,0.84 0.51,1.7l-2.38 0 -0.18 -0.93 0.07 -0.19 0.19 0.19 0.7 -0.98zm-3.17 0.21c0.2,-0.11 0.57,-0.17 0.95,-0.2l0.69 0.97 0.17 -0.17 0.07 0.17 -0.2 0.93 -2.18 0c0.02,-0.86 0.12,-1.36 0.5,-1.7zm2.63 -2.55c0.45,0.21 0.77,0.67 0.77,1.2 0,0.48 -0.26,0.89 -0.64,1.13l-0.7 0.5 -0.7 -0.5c-0.38,-0.23 -0.64,-0.65 -0.64,-1.13 0,-0.54 0.33,-1.01 0.8,-1.22l0.01 0.38c-0.29,0.17 -0.47,0.49 -0.47,0.84 0,0.54 0.45,0.98 1,0.98 0.55,0 1,-0.44 1,-0.98 0,-0.34 -0.17,-0.63 -0.43,-0.81l0 -0.39z"/>
 </g>
</svg>
